# xmcd CD Database Entry
#
# Track frame offsets:
# 150
# 14450
# 33427
# 54437
# 78722
# 92087
# 112142
# 133910
# 153162
# 169437
# 196897
#
# Disc length: 2880 seconds
#
# Revision: 1
# Processed by: cddbd v1.4PL0 Copyright (c) Steve Scherf et al.
# Submitted via: tcd 2.0b
#
DISCID=940b3e0b
DTITLE=Scarlet Runner/South Chain Gang
DYEAR=1900
DGENRE=
TTITLE0=Peace O' MIne
TTITLE1=Take The Fall
TTITLE2=See You Cry
TTITLE3=South Chain Gang
TTITLE4=Reflections
TTITLE5=Set You Free (Sh't Song)
TTITLE6=Comfort Me
TTITLE7=Outta Time
TTITLE8=Let Me Be
TTITLE9=Gamblin Blues
TTITLE10=Manic Depression
EXTD=
EXTT0=
EXTT1=
EXTT2=
EXTT3=
EXTT4=
EXTT5=
EXTT6=
EXTT7=
EXTT8=
EXTT9=
EXTT10=
PLAYORDER=
